<svg xmlns="http://www.w3.org/2000/svg" xmlns:xlink="http://www.w3.org/1999/xlink" width="120" zoomAndPan="magnify" viewBox="0 0 90 89.999999" height="120" preserveAspectRatio="xMidYMid meet" version="1.0"><defs><clipPath id="bd9609ad83"><path d="M 45 0 C 20.148438 0 0 20.148438 0 45 C 0 69.851562 20.148438 90 45 90 C 69.851562 90 90 69.851562 90 45 C 90 20.148438 69.851562 0 45 0 Z M 45 0 " clip-rule="nonzero"/></clipPath><clipPath id="8bfaa3a39b"><path d="M 1.972656 1.972656 L 88.027344 1.972656 L 88.027344 88.027344 L 1.972656 88.027344 Z M 1.972656 1.972656 " clip-rule="nonzero"/></clipPath><clipPath id="3533fcec9d"><path d="M 45 1.972656 C 21.238281 1.972656 1.972656 21.238281 1.972656 45 C 1.972656 68.761719 21.238281 88.027344 45 88.027344 C 68.761719 88.027344 88.027344 68.761719 88.027344 45 C 88.027344 21.238281 68.761719 1.972656 45 1.972656 Z M 45 1.972656 " clip-rule="nonzero"/></clipPath><clipPath id="9ce2cf6678"><path d="M 5.726562 6 L 44 6 L 44 39 L 5.726562 39 Z M 5.726562 6 " clip-rule="nonzero"/></clipPath></defs><g clip-path="url(#bd9609ad83)"><rect x="-9" width="108" fill="#f5fbf9" y="-9" height="107.999999" fill-opacity="1"/></g><g clip-path="url(#8bfaa3a39b)"><g clip-path="url(#3533fcec9d)"><path fill="#142952" d="M 1.972656 1.972656 L 88.027344 1.972656 L 88.027344 88.027344 L 1.972656 88.027344 Z M 1.972656 1.972656 " fill-opacity="1" fill-rule="nonzero"/></g></g><path fill="#22a2e3" d="M 70.4375 65.132812 C 69.917969 64.769531 69.304688 64.453125 68.628906 64.175781 C 69.976562 62.753906 71.136719 61.132812 72.445312 59.660156 C 76.847656 59.886719 79.457031 61.773438 78.585938 65.613281 C 77.550781 66.546875 76.613281 67.585938 75.59375 68.535156 C 74.652344 69.417969 73.617188 70.144531 72.582031 70.890625 C 73.238281 68.882812 72.824219 66.816406 70.4375 65.132812 " fill-opacity="1" fill-rule="nonzero"/><path fill="#22a2e3" d="M 71.007812 13.585938 C 70.371094 12.867188 69.617188 12.285156 68.875 11.679688 C 68.480469 11.359375 68.113281 11.003906 67.6875 10.726562 C 67.316406 10.488281 66.945312 10.261719 66.609375 9.972656 C 66.558594 9.929688 66.523438 9.882812 66.496094 9.835938 C 66.007812 9.542969 65.527344 9.257812 65.109375 9.007812 C 58.519531 5.605469 48.367188 6.734375 39.003906 9.277344 C 39.285156 9.839844 39.546875 10.414062 39.742188 11.019531 C 39.878906 11.441406 39.972656 11.867188 40.015625 12.296875 C 51.261719 10.292969 63.421875 9.742188 71.386719 14.003906 C 71.257812 13.863281 71.132812 13.726562 71.007812 13.585938 " fill-opacity="1" fill-rule="nonzero"/><path fill="#22a2e3" d="M 83.9375 33.546875 C 83.742188 32.464844 83.546875 31.382812 83.277344 30.320312 C 83.042969 29.382812 82.628906 28.53125 82.320312 27.625 C 82.179688 27.542969 82.09375 27.394531 82.144531 27.203125 C 81.988281 26.867188 81.824219 26.503906 81.640625 26.101562 C 78.003906 18.992188 66.957031 17.792969 54.316406 19.757812 C 53.824219 22.121094 53.019531 24.394531 52.222656 26.671875 C 73.375 24.859375 81.316406 30.027344 84.214844 34.882812 C 84.113281 34.4375 84.019531 33.992188 83.9375 33.546875 " fill-opacity="1" fill-rule="nonzero"/><path fill="#22a2e3" d="M 84.523438 54.265625 C 84.671875 53.726562 84.914062 53.171875 84.988281 52.621094 C 85.042969 52.234375 85.058594 51.890625 85.277344 51.578125 C 85.402344 50.898438 85.519531 50.226562 85.621094 49.644531 C 86.546875 40.660156 78.621094 37.542969 67.480469 38.011719 C 67.347656 38.386719 67.203125 38.761719 67.046875 39.128906 C 65.914062 41.785156 64.292969 44.160156 62.726562 46.574219 C 77.695312 46.242188 84.410156 50.421875 82.753906 59.105469 C 82.941406 58.722656 83.125 58.339844 83.292969 57.949219 C 83.3125 57.902344 83.335938 57.863281 83.363281 57.832031 C 83.691406 56.625 84.195312 55.472656 84.523438 54.265625 " fill-opacity="1" fill-rule="nonzero"/><path fill="#f5fbf9" d="M 9.546875 24.808594 C 19.3125 21.578125 26.738281 9.847656 22.582031 11.199219 C 11.964844 14.648438 9.546875 24.808594 9.457031 24.835938 C 9.484375 24.828125 9.519531 24.816406 9.546875 24.808594 " fill-opacity="1" fill-rule="nonzero"/><g clip-path="url(#9ce2cf6678)"><path fill="#f5fbf9" d="M 33.695312 10.328125 C 33.355469 8.472656 31.125 8.273438 27.878906 9.8125 C 29.363281 8.339844 31.917969 7.253906 33.8125 6.730469 C 40.796875 4.804688 45.84375 7.292969 41.828125 14.675781 C 35.472656 26.355469 15.914062 37.46875 5.734375 38.773438 C 5.734375 38.773438 33.867188 16.585938 33.695312 10.328125 " fill-opacity="1" fill-rule="nonzero"/></g><path fill="#f5fbf9" d="M 8.199219 59.234375 C 19.214844 58.464844 60.085938 34.53125 62.144531 14.714844 C 62.976562 6.671875 55.207031 5.050781 52.632812 4.613281 C 51.726562 4.457031 50.507812 4.28125 49.589844 4.191406 C 40.074219 3.25 33.082031 5.964844 33.082031 5.964844 C 40.34375 4.316406 56.011719 1.976562 50.109375 15.667969 C 42.878906 30.660156 8.199219 59.234375 8.199219 59.234375 " fill-opacity="1" fill-rule="nonzero"/><path fill="#f5fbf9" d="M 20.785156 76.039062 C 32 76.949219 86.6875 41.332031 77.164062 19.875 C 76.894531 19.269531 76.445312 18.257812 75.09375 16.746094 C 75.09375 16.746094 73.875 15.492188 73.449219 15.09375 C 70.476562 12.300781 70.261719 12.296875 68.3125 10.964844 C 67.355469 10.367188 66.089844 9.558594 65.109375 9.007812 C 69.183594 11.574219 72.257812 15.40625 67.226562 25.980469 C 56.789062 45.808594 20.785156 76.039062 20.785156 76.039062 " fill-opacity="1" fill-rule="nonzero"/><path fill="#f5fbf9" d="M 80 40.625 C 82.035156 36.324219 84.003906 31.296875 81.640625 26.101562 C 83.390625 29.820312 83.761719 30.660156 84.742188 34.347656 C 85.105469 35.710938 85.394531 37.574219 85.636719 38.960938 C 88.003906 57.464844 51.84375 81.667969 39.308594 84.109375 C 39.308594 84.109375 72.582031 54.617188 80 40.625 " fill-opacity="1" fill-rule="nonzero"/><path fill="#f5fbf9" d="M 67.472656 78.863281 C 73.953125 74.433594 77.324219 70.5 80.910156 63.855469 C 81.472656 62.8125 82.167969 61.390625 82.65625 60.308594 C 83.996094 56.867188 84.136719 56.507812 84.796875 53.964844 C 85.066406 52.671875 85.421875 50.949219 85.621094 49.644531 C 85.125 52.078125 84.960938 52.898438 83.332031 56.140625 C 74.5625 71.535156 60.765625 81.964844 53.183594 83.917969 C 53.183594 83.917969 58.351562 85.097656 67.472656 78.863281 " fill-opacity="1" fill-rule="nonzero"/></svg>