<svg xmlns="http://www.w3.org/2000/svg" xmlns:xlink="http://www.w3.org/1999/xlink" width="500" zoomAndPan="magnify" viewBox="0 0 375 67.499998" height="90" preserveAspectRatio="xMidYMid meet" version="1.0"><defs><g/><clipPath id="2404803003"><path d="M 12.730469 10 L 37 10 L 37 31 L 12.730469 31 Z M 12.730469 10 " clip-rule="nonzero"/></clipPath></defs><path fill="#22a2e3" d="M 52.917969 46.914062 C 52.597656 46.6875 52.214844 46.492188 51.792969 46.320312 C 52.632812 45.4375 53.351562 44.429688 54.164062 43.515625 C 56.898438 43.65625 58.519531 44.828125 57.976562 47.210938 C 57.335938 47.792969 56.753906 48.4375 56.121094 49.027344 C 55.535156 49.574219 54.890625 50.027344 54.25 50.488281 C 54.660156 49.242188 54.398438 47.960938 52.917969 46.914062 " fill-opacity="1" fill-rule="nonzero"/><path fill="#22a2e3" d="M 53.273438 14.898438 C 52.878906 14.453125 52.410156 14.089844 51.945312 13.714844 C 51.703125 13.515625 51.472656 13.296875 51.207031 13.125 C 50.980469 12.972656 50.75 12.832031 50.542969 12.65625 C 50.507812 12.628906 50.488281 12.597656 50.46875 12.570312 C 50.167969 12.386719 49.867188 12.210938 49.609375 12.054688 C 45.515625 9.941406 39.210938 10.644531 33.394531 12.222656 C 33.570312 12.574219 33.730469 12.929688 33.855469 13.304688 C 33.941406 13.566406 33.996094 13.832031 34.023438 14.097656 C 41.007812 12.851562 48.5625 12.511719 53.507812 15.15625 C 53.425781 15.074219 53.347656 14.988281 53.273438 14.898438 " fill-opacity="1" fill-rule="nonzero"/><path fill="#22a2e3" d="M 61.304688 27.296875 C 61.183594 26.625 61.058594 25.953125 60.894531 25.292969 C 60.746094 24.710938 60.488281 24.179688 60.296875 23.617188 C 60.210938 23.566406 60.15625 23.476562 60.1875 23.355469 C 60.09375 23.148438 59.988281 22.921875 59.875 22.671875 C 57.617188 18.257812 50.753906 17.511719 42.90625 18.730469 C 42.597656 20.199219 42.097656 21.613281 41.605469 23.027344 C 54.742188 21.902344 59.675781 25.109375 61.476562 28.125 C 61.414062 27.851562 61.355469 27.574219 61.304688 27.296875 " fill-opacity="1" fill-rule="nonzero"/><path fill="#22a2e3" d="M 61.667969 40.164062 C 61.757812 39.828125 61.90625 39.484375 61.957031 39.140625 C 61.988281 38.902344 62 38.6875 62.136719 38.496094 C 62.214844 38.074219 62.285156 37.65625 62.347656 37.296875 C 62.921875 31.714844 58 29.777344 51.082031 30.070312 C 51 30.304688 50.910156 30.535156 50.8125 30.765625 C 50.109375 32.410156 49.101562 33.890625 48.128906 35.386719 C 57.425781 35.179688 61.597656 37.777344 60.566406 43.167969 C 60.683594 42.933594 60.796875 42.695312 60.902344 42.453125 C 60.914062 42.421875 60.929688 42.398438 60.945312 42.378906 C 61.152344 41.628906 61.460938 40.914062 61.667969 40.164062 " fill-opacity="1" fill-rule="nonzero"/><path fill="#f5fbf9" d="M 15.097656 21.871094 C 21.164062 19.863281 25.777344 12.578125 23.195312 13.417969 C 16.601562 15.558594 15.097656 21.871094 15.042969 21.886719 C 15.0625 21.878906 15.082031 21.875 15.097656 21.871094 " fill-opacity="1" fill-rule="nonzero"/><g clip-path="url(#2404803003)"><path fill="#f5fbf9" d="M 30.097656 12.875 C 29.886719 11.722656 28.5 11.597656 26.484375 12.554688 C 27.40625 11.640625 28.992188 10.964844 30.171875 10.640625 C 34.507812 9.445312 37.644531 10.992188 35.148438 15.574219 C 31.199219 22.832031 19.054688 29.734375 12.734375 30.542969 C 12.734375 30.542969 30.207031 16.761719 30.097656 12.875 " fill-opacity="1" fill-rule="nonzero"/></g><path fill="#f5fbf9" d="M 14.261719 43.25 C 21.105469 42.773438 46.488281 27.90625 47.765625 15.601562 C 48.285156 10.605469 43.457031 9.597656 41.859375 9.324219 C 41.296875 9.230469 40.539062 9.121094 39.96875 9.0625 C 34.058594 8.480469 29.714844 10.164062 29.714844 10.164062 C 34.226562 9.144531 43.957031 7.6875 40.292969 16.191406 C 35.800781 25.503906 14.261719 43.25 14.261719 43.25 " fill-opacity="1" fill-rule="nonzero"/><path fill="#f5fbf9" d="M 22.078125 53.6875 C 29.042969 54.253906 63.007812 32.132812 57.09375 18.804688 C 56.929688 18.429688 56.648438 17.800781 55.808594 16.863281 C 55.808594 16.863281 55.054688 16.082031 54.789062 15.835938 C 52.941406 14.101562 52.808594 14.097656 51.597656 13.269531 C 51.003906 12.898438 50.21875 12.398438 49.609375 12.054688 C 52.140625 13.648438 54.050781 16.03125 50.925781 22.597656 C 44.441406 34.910156 22.078125 53.6875 22.078125 53.6875 " fill-opacity="1" fill-rule="nonzero"/><path fill="#f5fbf9" d="M 58.859375 31.695312 C 60.121094 29.019531 61.34375 25.898438 59.875 22.671875 C 60.964844 24.984375 61.191406 25.503906 61.800781 27.792969 C 62.027344 28.640625 62.207031 29.796875 62.355469 30.660156 C 63.828125 42.152344 41.371094 57.183594 33.585938 58.699219 C 33.585938 58.699219 54.25 40.382812 58.859375 31.695312 " fill-opacity="1" fill-rule="nonzero"/><path fill="#f5fbf9" d="M 51.078125 55.441406 C 55.101562 52.691406 57.195312 50.246094 59.421875 46.121094 C 59.773438 45.472656 60.203125 44.589844 60.503906 43.917969 C 61.339844 41.78125 61.425781 41.554688 61.835938 39.976562 C 62.003906 39.175781 62.226562 38.105469 62.347656 37.296875 C 62.042969 38.804688 61.9375 39.316406 60.925781 41.328125 C 55.480469 50.890625 46.910156 57.367188 42.203125 58.582031 C 42.203125 58.582031 45.410156 59.3125 51.078125 55.441406 " fill-opacity="1" fill-rule="nonzero"/><path stroke-linecap="butt" transform="matrix(0.744485, 0, 0, 0.744485, 125.024346, 21.509756)" fill="none" stroke-linejoin="miter" d="M 29.465448 5.543377 C 29.050942 4.845538 28.552485 4.310352 27.970077 3.943068 C 27.392917 3.570538 26.700324 3.381649 25.881806 3.381649 C 24.953102 3.381649 24.103102 3.727945 23.326558 4.410044 C 22.550015 5.092143 22.161744 5.884427 22.161744 6.792143 C 22.161744 7.369303 22.397855 7.873007 22.875324 8.303254 C 23.352793 8.733501 24.129336 9.184736 25.204954 9.662205 C 26.285818 10.139674 27.009892 10.491217 27.377176 10.722081 C 28.075016 11.04739 28.704645 11.488131 29.271312 12.049551 C 29.843226 12.605723 30.268226 13.235353 30.546312 13.943686 C 30.824399 14.65202 30.960818 15.386588 30.960818 16.152637 C 30.960818 17.569304 30.687979 18.964983 30.131806 20.334428 C 29.575633 21.698625 28.81483 22.86344 27.854645 23.823625 C 26.889213 24.789058 25.82409 25.507885 24.648781 25.985354 C 23.478719 26.457576 22.182731 26.698934 20.766064 26.698934 C 18.961126 26.698934 17.465756 26.226712 16.279953 25.287514 C 15.099397 24.348317 14.170694 23.110045 13.493842 21.583193 L 17.329336 18.345847 C 17.581188 19.526403 18.084891 20.465601 18.840447 21.147699 C 19.590756 21.829798 20.456497 22.170848 21.432423 22.170848 C 22.523781 22.170848 23.468225 21.72486 24.265756 20.832885 C 25.068534 19.940909 25.467299 18.923008 25.467299 17.784427 C 25.467299 17.018378 25.225941 16.383501 24.753719 15.874551 C 24.27625 15.360353 23.504954 14.898625 22.43983 14.478872 C 20.446003 13.691835 18.997854 12.826094 18.090138 11.886896 C 17.187669 10.947699 16.731188 9.756649 16.731188 8.318995 C 16.731188 6.744921 17.124706 5.24955 17.911743 3.832883 C 18.704027 2.416217 19.800632 1.272389 21.201558 0.390908 C 22.607731 -0.490574 24.118842 -0.931315 25.745386 -0.931315 C 26.973164 -0.931315 28.227176 -0.658475 29.502176 -0.118043 C 30.782423 0.427636 31.758349 1.130723 32.424707 1.991216 Z M 42.687671 -0.233475 C 45.311128 -0.233475 47.268227 0.306957 48.553721 1.387821 C 49.844462 2.463439 50.489832 3.964056 50.489832 5.889674 C 50.489832 7.720847 50.133042 9.441834 49.424708 11.057884 C 48.716375 12.663439 47.640758 13.922699 46.187363 14.825168 C 44.739214 15.732884 42.923782 16.189366 40.746313 16.189366 L 38.101868 16.189366 L 36.527794 26.001095 L 31.4173 26.001095 L 35.562362 -0.233475 Z M 38.757732 11.939365 L 40.079955 11.939365 C 41.428412 11.939365 42.462054 11.739983 43.180881 11.33597 C 43.899708 10.926711 44.424399 10.297081 44.744461 9.441834 C 45.06977 8.58134 45.232424 7.741834 45.232424 6.928563 C 45.232424 6.183501 45.096004 5.611587 44.828412 5.207575 C 44.566066 4.803562 44.109585 4.499241 43.469461 4.299859 C 42.834585 4.100476 42.042301 4.006031 41.092609 4.006031 L 40.011745 4.006031 Z M 58.281499 -0.233475 L 56.644462 10.097699 L 66.109895 10.097699 L 67.746932 -0.233475 L 72.862673 -0.233475 L 68.722858 26.001095 L 63.60187 26.001095 L 65.443537 14.274242 L 55.978104 14.274242 L 54.136437 26.001095 L 49.020696 26.001095 L 53.171005 -0.233475 Z M 89.421934 -0.233475 L 88.729341 4.215908 L 80.276563 4.215908 L 79.3636 9.99276 L 87.512057 9.99276 L 86.814217 14.44739 L 78.66576 14.44739 L 77.521933 21.546465 L 85.985205 21.546465 L 85.287365 26.001095 L 71.708352 26.001095 L 75.858661 -0.233475 Z M 99.097243 -0.233475 C 101.510823 -0.233475 103.378725 0.285969 104.6957 1.324858 C 106.023169 2.368994 106.68428 3.874859 106.68428 5.847698 C 106.68428 8.145847 106.03891 10.165908 104.748169 11.902637 C 103.462675 13.644612 101.878107 14.65202 99.999712 14.930106 L 105.671626 26.001095 L 99.480268 26.001095 L 94.779033 15.423316 L 94.71607 15.423316 L 93.042304 26.001095 L 87.926563 26.001095 L 92.071625 -0.233475 Z M 95.266996 11.834427 L 96.106502 11.834427 C 97.984897 11.834427 99.349095 11.377946 100.193848 10.459736 C 101.043848 9.541526 101.468848 8.329489 101.468848 6.823624 C 101.468848 5.758501 101.112058 5.013439 100.403724 4.583192 C 99.700638 4.152945 98.646008 3.937822 97.255576 3.937822 L 96.521008 3.937822 Z M 124.292924 -0.233475 L 123.595084 4.215908 L 115.142306 4.215908 L 114.229343 9.99276 L 122.3778 9.99276 L 121.679961 14.44739 L 113.53675 14.44739 L 112.387676 21.546465 L 120.850948 21.546465 L 120.153109 26.001095 L 106.574095 26.001095 L 110.724404 -0.233475 Z M 124.292924 -0.233475 " stroke="#ffffff" stroke-width="0.76125" stroke-opacity="1" stroke-miterlimit="4"/><g fill="#f5fbf9" fill-opacity="1"><g transform="translate(70.499687, 40.866316)"><g><path d="M 9.296875 -19.53125 C 10.921875 -19.53125 12.171875 -19.207031 13.046875 -18.5625 C 13.921875 -17.925781 14.359375 -16.921875 14.359375 -15.546875 C 14.359375 -14.441406 14.144531 -13.425781 13.71875 -12.5 C 13.289062 -11.570312 12.695312 -10.882812 11.9375 -10.4375 C 12.789062 -10.269531 13.441406 -9.847656 13.890625 -9.171875 C 14.347656 -8.492188 14.578125 -7.640625 14.578125 -6.609375 C 14.578125 -5.398438 14.304688 -4.289062 13.765625 -3.28125 C 13.222656 -2.269531 12.410156 -1.46875 11.328125 -0.875 C 10.253906 -0.289062 8.96875 0 7.46875 0 L 1.40625 0 L 4.484375 -19.53125 Z M 7.015625 -11.40625 L 7.6875 -11.40625 C 8.851562 -11.40625 9.644531 -11.71875 10.0625 -12.34375 C 10.488281 -12.976562 10.703125 -13.742188 10.703125 -14.640625 C 10.703125 -15.242188 10.523438 -15.695312 10.171875 -16 C 9.828125 -16.3125 9.191406 -16.46875 8.265625 -16.46875 L 7.828125 -16.46875 Z M 5.703125 -3.0625 L 6.625 -3.0625 C 8.269531 -3.0625 9.375 -3.382812 9.9375 -4.03125 C 10.507812 -4.675781 10.796875 -5.5 10.796875 -6.5 C 10.796875 -7.019531 10.597656 -7.484375 10.203125 -7.890625 C 9.804688 -8.296875 8.847656 -8.5 7.328125 -8.5 L 6.546875 -8.5 Z M 5.703125 -3.0625 "/></g></g></g><g fill="#f5fbf9" fill-opacity="1"><g transform="translate(84.255623, 40.866316)"><g><path d="M 8.296875 -19.53125 L 5.71875 -3.3125 L 11.109375 -3.3125 L 10.59375 0 L 1.40625 0 L 4.484375 -19.53125 Z M 8.296875 -19.53125 "/></g></g></g><g fill="#f5fbf9" fill-opacity="1"><g transform="translate(94.099773, 40.866316)"><g><path d="M 1.859375 -7.828125 C 1.859375 -10.003906 2.367188 -12.039062 3.390625 -13.9375 C 4.410156 -15.832031 5.800781 -17.320312 7.5625 -18.40625 C 9.320312 -19.5 11.238281 -20.046875 13.3125 -20.046875 C 14.9375 -20.046875 16.363281 -19.707031 17.59375 -19.03125 C 18.820312 -18.363281 19.78125 -17.394531 20.46875 -16.125 C 21.15625 -14.851562 21.5 -13.390625 21.5 -11.734375 C 21.5 -9.660156 21.015625 -7.671875 20.046875 -5.765625 C 19.078125 -3.867188 17.710938 -2.347656 15.953125 -1.203125 C 14.191406 -0.0546875 12.222656 0.515625 10.046875 0.515625 C 7.578125 0.515625 5.59375 -0.234375 4.09375 -1.734375 C 2.601562 -3.234375 1.859375 -5.265625 1.859375 -7.828125 Z M 12.671875 -16.296875 C 11.515625 -16.296875 10.40625 -15.953125 9.34375 -15.265625 C 8.289062 -14.585938 7.445312 -13.644531 6.8125 -12.4375 C 6.175781 -11.226562 5.859375 -9.914062 5.859375 -8.5 C 5.859375 -6.894531 6.273438 -5.613281 7.109375 -4.65625 C 7.953125 -3.707031 9.125 -3.234375 10.625 -3.234375 C 12.09375 -3.234375 13.351562 -3.644531 14.40625 -4.46875 C 15.457031 -5.300781 16.238281 -6.320312 16.75 -7.53125 C 17.257812 -8.75 17.515625 -9.925781 17.515625 -11.0625 C 17.515625 -12.582031 17.082031 -13.832031 16.21875 -14.8125 C 15.351562 -15.800781 14.171875 -16.296875 12.671875 -16.296875 Z M 12.671875 -16.296875 "/></g></g></g><g fill="#f5fbf9" fill-opacity="1"><g transform="translate(113.788131, 40.866316)"><g><path d="M 16.5 -13.578125 C 16.257812 -14.453125 15.789062 -15.1875 15.09375 -15.78125 C 14.40625 -16.382812 13.5625 -16.6875 12.5625 -16.6875 C 11.320312 -16.6875 10.179688 -16.273438 9.140625 -15.453125 C 8.109375 -14.628906 7.296875 -13.5625 6.703125 -12.25 C 6.117188 -10.9375 5.828125 -9.617188 5.828125 -8.296875 C 5.828125 -6.648438 6.238281 -5.328125 7.0625 -4.328125 C 7.882812 -3.335938 8.992188 -2.84375 10.390625 -2.84375 C 11.515625 -2.84375 12.582031 -3.265625 13.59375 -4.109375 C 14.613281 -4.960938 15.265625 -6.019531 15.546875 -7.28125 L 11.40625 -7.28125 L 11.890625 -10.390625 L 20.34375 -10.390625 C 19.820312 -7.035156 18.601562 -4.378906 16.6875 -2.421875 C 14.78125 -0.460938 12.457031 0.515625 9.71875 0.515625 C 7.351562 0.515625 5.445312 -0.253906 4 -1.796875 C 2.5625 -3.347656 1.84375 -5.359375 1.84375 -7.828125 C 1.84375 -9.859375 2.347656 -11.832031 3.359375 -13.75 C 4.367188 -15.664062 5.75 -17.191406 7.5 -18.328125 C 9.25 -19.472656 11.15625 -20.046875 13.21875 -20.046875 C 14.820312 -20.046875 16.238281 -19.648438 17.46875 -18.859375 C 18.707031 -18.066406 19.601562 -16.910156 20.15625 -15.390625 Z M 16.5 -13.578125 "/></g></g></g></svg>