<svg xmlns="http://www.w3.org/2000/svg" xmlns:xlink="http://www.w3.org/1999/xlink" width="500" zoomAndPan="magnify" viewBox="0 0 375 149.999998" height="200" preserveAspectRatio="xMidYMid meet" version="1.0"><defs><g/></defs><path stroke-linecap="butt" transform="matrix(0.75, 0, 0, 0.75, 124.407212, 58.421519)" fill="none" stroke-linejoin="miter" d="M 36.639345 -0.285983 L 41.019553 12.323393 L 49.925804 -0.285983 L 58.201846 -0.285983 L 43.665387 19.349435 L 41.019553 36.000477 L 33.946636 36.000477 L 36.59247 19.349435 L 28.410178 -0.285983 Z M 54.108096 21.464018 C 54.108096 17.422351 55.056012 13.641101 56.941429 10.115059 C 58.837263 6.578601 61.420596 3.802559 64.696638 1.781725 C 67.97268 -0.239108 71.529972 -1.249525 75.37893 -1.249525 C 78.394555 -1.249525 81.040389 -0.624525 83.321639 0.630684 C 85.602889 1.875475 87.384139 3.677559 88.670598 6.036934 C 89.951848 8.396309 90.597681 11.115059 90.597681 14.203601 C 90.597681 18.047351 89.696639 21.74006 87.894556 25.27131 C 86.097681 28.797352 83.566431 31.630685 80.290389 33.766102 C 77.014347 35.896311 73.358097 36.964019 69.31643 36.964019 C 64.733096 36.964019 61.050804 35.568186 58.269554 32.781727 C 55.498721 29.984852 54.108096 26.214018 54.108096 21.464018 Z M 74.181014 5.729642 C 72.03518 5.729642 69.983097 6.365059 68.024763 7.635892 C 66.06643 8.896309 64.488305 10.651517 63.300805 12.896309 C 62.118513 15.146309 61.524763 17.589018 61.524763 20.219226 C 61.524763 23.198393 62.300804 25.568185 63.852888 27.339018 C 65.41018 29.104644 67.582055 29.984852 70.373722 29.984852 C 73.108097 29.984852 75.446639 29.214019 77.399764 27.682768 C 79.358097 26.135893 80.811222 24.24006 81.759139 21.995268 C 82.707056 19.745268 83.181014 17.562976 83.181014 15.448393 C 83.181014 12.630684 82.378931 10.307767 80.769556 8.479642 C 79.165389 6.646309 76.967472 5.729642 74.181014 5.729642 Z M 102.425807 -0.285983 L 99.248723 19.92756 C 98.962265 22.010893 98.816432 23.516102 98.816432 24.448393 C 98.816432 26.469227 99.207057 28.036935 99.993515 29.151519 C 100.779973 30.255685 102.092473 30.807769 103.91539 30.807769 C 106.13414 30.807769 107.904974 29.948394 109.238307 28.234852 C 110.571641 26.510893 111.540391 23.578602 112.154974 19.443185 L 115.233099 -0.285983 L 122.306016 -0.285983 L 118.931016 21.172351 C 118.102891 26.432768 116.321641 30.380685 113.587266 33.016102 C 110.858099 35.646311 107.316432 36.964019 102.951849 36.964019 C 99.233098 36.964019 96.404973 36.000477 94.47789 34.073394 C 92.561223 32.14631 91.60289 29.292144 91.60289 25.505685 C 91.60289 24.354643 91.712265 23.02131 91.931015 21.510893 L 95.347681 -0.285983 Z M 135.972684 -0.285983 C 139.306017 -0.285983 141.889351 0.432767 143.712268 1.875475 C 145.545601 3.318184 146.462268 5.401517 146.462268 8.125476 C 146.462268 11.307768 145.571643 14.099434 143.785184 16.505685 C 142.009142 18.911935 139.816434 20.307768 137.217476 20.687976 L 145.066434 36.000477 L 136.498725 36.000477 L 130.003933 21.370268 L 129.904975 21.370268 L 127.592475 36.000477 L 120.519558 36.000477 L 126.253933 -0.285983 Z M 130.6706 16.411935 L 131.832059 16.411935 C 134.436225 16.411935 136.321642 15.776518 137.488309 14.510893 C 138.660184 13.240059 139.248726 11.562976 139.248726 9.479642 C 139.248726 8.005684 138.759142 6.974434 137.779976 6.375476 C 136.800809 5.781726 135.347684 5.484851 133.4206 5.484851 L 132.410184 5.484851 Z M 130.6706 16.411935 " stroke="#142952" stroke-width="1.052916" stroke-opacity="1" stroke-miterlimit="4"/><g fill="#142952" fill-opacity="1"><g transform="translate(7.896094, 85.419746)"><g><path d="M 23.3125 -19.984375 C 22.6875 -20.898438 21.890625 -21.609375 20.921875 -22.109375 C 19.960938 -22.617188 18.90625 -22.875 17.75 -22.875 C 15.945312 -22.875 14.300781 -22.304688 12.8125 -21.171875 C 11.320312 -20.046875 10.164062 -18.632812 9.34375 -16.9375 C 8.53125 -15.238281 8.125 -13.535156 8.125 -11.828125 C 8.125 -9.617188 8.75 -7.816406 10 -6.421875 C 11.25 -5.023438 12.847656 -4.328125 14.796875 -4.328125 C 15.953125 -4.328125 17.101562 -4.597656 18.25 -5.140625 C 19.40625 -5.679688 20.414062 -6.375 21.28125 -7.21875 L 20.28125 -0.90625 C 19.195312 -0.425781 18.128906 -0.0351562 17.078125 0.265625 C 16.035156 0.566406 14.960938 0.71875 13.859375 0.71875 C 11.710938 0.71875 9.785156 0.222656 8.078125 -0.765625 C 6.367188 -1.765625 5.023438 -3.175781 4.046875 -5 C 3.078125 -6.832031 2.59375 -8.859375 2.59375 -11.078125 C 2.59375 -13.816406 3.296875 -16.484375 4.703125 -19.078125 C 6.109375 -21.679688 8.046875 -23.804688 10.515625 -25.453125 C 12.984375 -27.097656 15.648438 -27.921875 18.515625 -27.921875 C 19.585938 -27.921875 20.609375 -27.78125 21.578125 -27.5 C 22.554688 -27.226562 23.46875 -26.84375 24.3125 -26.34375 Z M 23.3125 -19.984375 "/></g></g></g><g fill="#142952" fill-opacity="1"><g transform="translate(28.787415, 85.419746)"><g><path d="M 13.53125 -27.203125 C 16.03125 -27.203125 17.960938 -26.660156 19.328125 -25.578125 C 20.703125 -24.492188 21.390625 -22.929688 21.390625 -20.890625 C 21.390625 -18.503906 20.722656 -16.410156 19.390625 -14.609375 C 18.054688 -12.804688 16.414062 -11.757812 14.46875 -11.46875 L 20.34375 0 L 13.921875 0 L 9.0625 -10.96875 L 8.984375 -10.96875 L 7.25 0 L 1.953125 0 L 6.234375 -27.203125 Z M 9.5625 -14.6875 L 10.421875 -14.6875 C 12.367188 -14.6875 13.78125 -15.160156 14.65625 -16.109375 C 15.539062 -17.054688 15.984375 -18.3125 15.984375 -19.875 C 15.984375 -20.976562 15.613281 -21.753906 14.875 -22.203125 C 14.144531 -22.648438 13.054688 -22.875 11.609375 -22.875 L 10.859375 -22.875 Z M 9.5625 -14.6875 "/></g></g></g><g fill="#142952" fill-opacity="1"><g transform="translate(48.127216, 85.419746)"><g><path d="M 20.3125 -27.203125 L 19.59375 -22.578125 L 10.828125 -22.578125 L 9.890625 -16.59375 L 18.328125 -16.59375 L 17.609375 -11.984375 L 9.15625 -11.984375 L 7.96875 -4.625 L 16.734375 -4.625 L 16.015625 0 L 1.953125 0 L 6.234375 -27.203125 Z M 20.3125 -27.203125 "/></g></g></g><g fill="#142952" fill-opacity="1"><g transform="translate(64.941283, 85.419746)"><g><path d="M 18.828125 -27.921875 L 24.71875 0 L 19.046875 0 L 17.859375 -5.734375 L 8.40625 -5.734375 L 5.265625 0 L -0.328125 0 L 14.71875 -27.921875 Z M 15.1875 -19.953125 L 10.609375 -10.0625 L 17.0625 -10.0625 L 15.265625 -19.953125 Z M 15.1875 -19.953125 "/></g></g></g><g fill="#142952" fill-opacity="1"><g transform="translate(88.538753, 85.419746)"><g><path d="M 20.5625 -27.203125 L 19.84375 -22.578125 L 14.359375 -22.578125 L 10.78125 0 L 5.484375 0 L 9.0625 -22.578125 L 3.578125 -22.578125 L 4.296875 -27.203125 Z M 20.5625 -27.203125 "/></g></g></g><g fill="#142952" fill-opacity="1"><g transform="translate(104.017785, 85.419746)"><g><path d="M 20.3125 -27.203125 L 19.59375 -22.578125 L 10.828125 -22.578125 L 9.890625 -16.59375 L 18.328125 -16.59375 L 17.609375 -11.984375 L 9.15625 -11.984375 L 7.96875 -4.625 L 16.734375 -4.625 L 16.015625 0 L 1.953125 0 L 6.234375 -27.203125 Z M 20.3125 -27.203125 "/></g></g></g><g fill="#142952" fill-opacity="1"><g transform="translate(120.8414, 85.419746)"><g/></g></g><g fill="#142952" fill-opacity="1"><g transform="translate(265.449011, 85.903635)"><g><path d="M 12.953125 -27.21875 C 15.210938 -27.21875 16.953125 -26.769531 18.171875 -25.875 C 19.390625 -24.988281 20 -23.582031 20 -21.65625 C 20 -20.113281 19.703125 -18.695312 19.109375 -17.40625 C 18.523438 -16.125 17.703125 -15.171875 16.640625 -14.546875 C 17.816406 -14.304688 18.722656 -13.71875 19.359375 -12.78125 C 20.003906 -11.84375 20.328125 -10.648438 20.328125 -9.203125 C 20.328125 -7.515625 19.945312 -5.96875 19.1875 -4.5625 C 18.425781 -3.15625 17.289062 -2.039062 15.78125 -1.21875 C 14.28125 -0.40625 12.484375 0 10.390625 0 L 1.953125 0 L 6.25 -27.21875 Z M 9.78125 -15.875 L 10.71875 -15.875 C 12.332031 -15.875 13.429688 -16.3125 14.015625 -17.1875 C 14.609375 -18.070312 14.90625 -19.140625 14.90625 -20.390625 C 14.90625 -21.234375 14.664062 -21.867188 14.1875 -22.296875 C 13.707031 -22.734375 12.816406 -22.953125 11.515625 -22.953125 L 10.90625 -22.953125 Z M 7.9375 -4.265625 L 9.234375 -4.265625 C 11.523438 -4.265625 13.066406 -4.710938 13.859375 -5.609375 C 14.648438 -6.515625 15.046875 -7.664062 15.046875 -9.0625 C 15.046875 -9.78125 14.769531 -10.421875 14.21875 -10.984375 C 13.664062 -11.554688 12.332031 -11.84375 10.21875 -11.84375 L 9.125 -11.84375 Z M 7.9375 -4.265625 "/></g></g></g><g fill="#142952" fill-opacity="1"><g transform="translate(284.610539, 85.903635)"><g><path d="M 11.546875 -27.21875 L 7.984375 -4.625 L 15.484375 -4.625 L 14.765625 0 L 1.953125 0 L 6.25 -27.21875 Z M 11.546875 -27.21875 "/></g></g></g><g fill="#142952" fill-opacity="1"><g transform="translate(298.323104, 85.903635)"><g><path d="M 2.59375 -10.90625 C 2.59375 -13.9375 3.300781 -16.773438 4.71875 -19.421875 C 6.144531 -22.066406 8.082031 -24.144531 10.53125 -25.65625 C 12.988281 -27.175781 15.660156 -27.9375 18.546875 -27.9375 C 20.804688 -27.9375 22.789062 -27.46875 24.5 -26.53125 C 26.207031 -25.59375 27.539062 -24.238281 28.5 -22.46875 C 29.46875 -20.695312 29.953125 -18.65625 29.953125 -16.34375 C 29.953125 -13.457031 29.28125 -10.691406 27.9375 -8.046875 C 26.59375 -5.398438 24.691406 -3.273438 22.234375 -1.671875 C 19.773438 -0.078125 17.03125 0.71875 14 0.71875 C 10.5625 0.71875 7.800781 -0.328125 5.71875 -2.421875 C 3.632812 -4.515625 2.59375 -7.34375 2.59375 -10.90625 Z M 17.65625 -22.703125 C 16.039062 -22.703125 14.5 -22.222656 13.03125 -21.265625 C 11.5625 -20.316406 10.378906 -19 9.484375 -17.3125 C 8.597656 -15.632812 8.15625 -13.8125 8.15625 -11.84375 C 8.15625 -9.601562 8.738281 -7.820312 9.90625 -6.5 C 11.070312 -5.175781 12.703125 -4.515625 14.796875 -4.515625 C 16.835938 -4.515625 18.59375 -5.09375 20.0625 -6.25 C 21.53125 -7.40625 22.617188 -8.820312 23.328125 -10.5 C 24.046875 -12.1875 24.40625 -13.820312 24.40625 -15.40625 C 24.40625 -17.53125 23.800781 -19.273438 22.59375 -20.640625 C 21.394531 -22.015625 19.75 -22.703125 17.65625 -22.703125 Z M 17.65625 -22.703125 "/></g></g></g><g fill="#142952" fill-opacity="1"><g transform="translate(325.748294, 85.903635)"><g><path d="M 22.984375 -18.90625 C 22.648438 -20.132812 22 -21.164062 21.03125 -22 C 20.070312 -22.832031 18.894531 -23.25 17.5 -23.25 C 15.769531 -23.25 14.179688 -22.675781 12.734375 -21.53125 C 11.296875 -20.382812 10.164062 -18.894531 9.34375 -17.0625 C 8.53125 -15.238281 8.125 -13.398438 8.125 -11.546875 C 8.125 -9.265625 8.691406 -7.429688 9.828125 -6.046875 C 10.972656 -4.660156 12.519531 -3.96875 14.46875 -3.96875 C 16.03125 -3.96875 17.519531 -4.554688 18.9375 -5.734375 C 20.363281 -6.910156 21.269531 -8.378906 21.65625 -10.140625 L 15.875 -10.140625 L 16.5625 -14.46875 L 28.328125 -14.46875 C 27.609375 -9.800781 25.921875 -6.101562 23.265625 -3.375 C 20.609375 -0.644531 17.363281 0.71875 13.53125 0.71875 C 10.238281 0.71875 7.585938 -0.351562 5.578125 -2.5 C 3.566406 -4.65625 2.5625 -7.457031 2.5625 -10.90625 C 2.5625 -13.738281 3.265625 -16.488281 4.671875 -19.15625 C 6.078125 -21.832031 8 -23.960938 10.4375 -25.546875 C 12.882812 -27.140625 15.539062 -27.9375 18.40625 -27.9375 C 20.644531 -27.9375 22.625 -27.378906 24.34375 -26.265625 C 26.0625 -25.160156 27.304688 -23.550781 28.078125 -21.4375 Z M 22.984375 -18.90625 "/></g></g></g></svg>