<svg xmlns="http://www.w3.org/2000/svg" xmlns:xlink="http://www.w3.org/1999/xlink" width="700" zoomAndPan="magnify" viewBox="0 0 525 74.999997" height="100" preserveAspectRatio="xMidYMid meet" version="1.0"><defs><g/></defs><g fill="#142952" fill-opacity="1"><g transform="translate(25.888743, 47.979914)"><g><path d="M 28.984375 -24.859375 C 28.203125 -25.992188 27.210938 -26.875 26.015625 -27.5 C 24.816406 -28.125 23.503906 -28.4375 22.078125 -28.4375 C 19.828125 -28.4375 17.773438 -27.734375 15.921875 -26.328125 C 14.066406 -24.921875 12.628906 -23.164062 11.609375 -21.0625 C 10.597656 -18.957031 10.09375 -16.84375 10.09375 -14.71875 C 10.09375 -11.96875 10.867188 -9.722656 12.421875 -7.984375 C 13.984375 -6.253906 15.972656 -5.390625 18.390625 -5.390625 C 19.828125 -5.390625 21.265625 -5.722656 22.703125 -6.390625 C 24.140625 -7.066406 25.394531 -7.925781 26.46875 -8.96875 L 25.21875 -1.125 C 23.863281 -0.519531 22.535156 -0.0351562 21.234375 0.328125 C 19.941406 0.703125 18.601562 0.890625 17.21875 0.890625 C 14.5625 0.890625 12.171875 0.269531 10.046875 -0.96875 C 7.921875 -2.207031 6.253906 -3.960938 5.046875 -6.234375 C 3.835938 -8.503906 3.234375 -11.015625 3.234375 -13.765625 C 3.234375 -17.179688 4.109375 -20.503906 5.859375 -23.734375 C 7.609375 -26.960938 10.015625 -29.597656 13.078125 -31.640625 C 16.140625 -33.691406 19.453125 -34.71875 23.015625 -34.71875 C 24.359375 -34.71875 25.632812 -34.546875 26.84375 -34.203125 C 28.0625 -33.859375 29.191406 -33.375 30.234375 -32.75 Z M 28.984375 -24.859375 "/></g></g></g><g fill="#142952" fill-opacity="1"><g transform="translate(51.862192, 47.979914)"><g><path d="M 16.828125 -33.828125 C 19.929688 -33.828125 22.335938 -33.148438 24.046875 -31.796875 C 25.753906 -30.453125 26.609375 -28.507812 26.609375 -25.96875 C 26.609375 -23.007812 25.773438 -20.40625 24.109375 -18.15625 C 22.453125 -15.914062 20.410156 -14.617188 17.984375 -14.265625 L 25.296875 0 L 17.3125 0 L 11.265625 -13.640625 L 11.171875 -13.640625 L 9.015625 0 L 2.421875 0 L 7.765625 -33.828125 Z M 11.890625 -18.25 L 12.96875 -18.25 C 15.382812 -18.25 17.140625 -18.835938 18.234375 -20.015625 C 19.328125 -21.203125 19.875 -22.769531 19.875 -24.71875 C 19.875 -26.09375 19.414062 -27.054688 18.5 -27.609375 C 17.59375 -28.160156 16.238281 -28.4375 14.4375 -28.4375 L 13.5 -28.4375 Z M 11.890625 -18.25 "/></g></g></g><g fill="#142952" fill-opacity="1"><g transform="translate(75.906681, 47.979914)"><g><path d="M 25.25 -33.828125 L 24.359375 -28.078125 L 13.453125 -28.078125 L 12.296875 -20.640625 L 22.78125 -20.640625 L 21.890625 -14.890625 L 11.390625 -14.890625 L 9.90625 -5.734375 L 20.8125 -5.734375 L 19.921875 0 L 2.421875 0 L 7.765625 -33.828125 Z M 25.25 -33.828125 "/></g></g></g><g fill="#142952" fill-opacity="1"><g transform="translate(96.811019, 47.979914)"><g><path d="M 23.421875 -34.71875 L 30.734375 0 L 23.6875 0 L 22.203125 -7.125 L 10.453125 -7.125 L 6.546875 0 L -0.40625 0 L 18.296875 -34.71875 Z M 18.890625 -24.8125 L 13.1875 -12.515625 L 21.21875 -12.515625 L 18.96875 -24.8125 Z M 18.890625 -24.8125 "/></g></g></g><g fill="#142952" fill-opacity="1"><g transform="translate(126.148924, 47.979914)"><g><path d="M 25.5625 -33.828125 L 24.671875 -28.078125 L 17.859375 -28.078125 L 13.40625 0 L 6.8125 0 L 11.265625 -28.078125 L 4.4375 -28.078125 L 5.34375 -33.828125 Z M 25.5625 -33.828125 "/></g></g></g><g fill="#142952" fill-opacity="1"><g transform="translate(145.393467, 47.979914)"><g><path d="M 25.25 -33.828125 L 24.359375 -28.078125 L 13.453125 -28.078125 L 12.296875 -20.640625 L 22.78125 -20.640625 L 21.890625 -14.890625 L 11.390625 -14.890625 L 9.90625 -5.734375 L 20.8125 -5.734375 L 19.921875 0 L 2.421875 0 L 7.765625 -33.828125 Z M 25.25 -33.828125 "/></g></g></g><g fill="#142952" fill-opacity="1"><g transform="translate(166.302798, 47.979914)"><g/></g></g><path stroke-linecap="butt" transform="matrix(0.75, 0, 0, 0.75, 176.669382, 14.227745)" fill="none" stroke-linejoin="miter" d="M 47.722078 9.821341 C 47.003328 8.623424 46.149162 7.706757 45.15437 7.076549 C 44.159578 6.430715 42.961661 6.107799 41.560619 6.107799 C 39.961661 6.107799 38.498119 6.701549 37.159577 7.878632 C 35.826244 9.045299 35.159577 10.409882 35.159577 11.967174 C 35.159577 12.961966 35.571036 13.826549 36.388744 14.566133 C 37.206452 15.310925 38.539786 16.086966 40.388744 16.904675 C 42.253328 17.722383 43.49812 18.331758 44.128328 18.7328 C 45.326245 19.290092 46.414787 20.0453 47.388745 21.008842 C 48.37312 21.967175 49.102287 23.050508 49.581453 24.269259 C 50.055412 25.488009 50.294995 26.753634 50.294995 28.066134 C 50.294995 30.503634 49.815829 32.899468 48.862703 35.253634 C 47.909578 37.602593 46.602287 39.602593 44.946036 41.258843 C 43.294995 42.915093 41.456453 44.154677 39.440828 44.972385 C 37.425202 45.790094 35.201244 46.196344 32.763744 46.196344 C 29.659577 46.196344 27.08666 45.389052 25.050201 43.774469 C 23.013743 42.154677 21.419993 40.034885 20.258534 37.404676 L 26.847077 31.836968 C 27.284577 33.873426 28.154368 35.477593 29.446035 36.659885 C 30.74291 37.826551 32.227285 38.409885 33.904369 38.409885 C 35.784577 38.409885 37.409577 37.64426 38.784578 36.118218 C 40.154369 34.576551 40.841869 32.831759 40.841869 30.873426 C 40.841869 29.555717 40.435619 28.461967 39.617911 27.586967 C 38.800203 26.706759 37.472077 25.909884 35.643952 25.191134 C 32.21166 23.836967 29.722077 22.352592 28.164785 20.7328 C 26.602285 19.118217 25.826243 17.071341 25.826243 14.597383 C 25.826243 11.889049 26.503327 9.321341 27.857493 6.883841 C 29.216868 4.451549 31.102285 2.47759 33.508536 0.967173 C 35.925202 -0.55366 38.529369 -1.314077 41.326244 -1.314077 C 43.440828 -1.314077 45.59187 -0.845327 47.784578 0.0921733 C 49.982495 1.024465 51.659579 2.232798 52.81062 3.711965 Z M 66.992913 -0.11616 L 64.175205 17.649466 L 80.451248 17.649466 L 83.268956 -0.11616 L 92.060624 -0.11616 L 84.94604 44.998427 L 76.138747 44.998427 L 79.310623 24.836967 L 63.03458 24.836967 L 59.862704 44.998427 L 51.071037 44.998427 L 58.196038 -0.11616 Z M 118.081459 -1.314077 L 127.841877 44.998427 L 118.446042 44.998427 L 116.477292 35.48801 L 100.784583 35.48801 L 95.586666 44.998427 L 86.305415 44.998427 L 111.258542 -1.314077 Z M 112.034584 11.909883 L 104.435625 28.300509 L 115.143959 28.300509 L 112.164792 11.909883 Z M 148.414795 -0.11616 C 152.565837 -0.11616 155.77417 0.784882 158.045004 2.576548 C 160.321046 4.368215 161.461671 6.956757 161.461671 10.347382 C 161.461671 14.300508 160.352296 17.774466 158.128337 20.76405 C 155.920004 23.753634 153.196045 25.488009 149.96167 25.961967 L 159.722087 44.998427 L 149.071045 44.998427 L 140.992919 26.810925 L 140.878336 26.810925 L 137.998127 44.998427 L 129.20646 44.998427 L 136.331461 -0.11616 Z M 141.826253 20.644258 L 143.274169 20.644258 C 146.508545 20.644258 148.847087 19.8578 150.300212 18.279675 C 151.758545 16.70155 152.49292 14.618216 152.49292 12.024466 C 152.49292 10.196341 151.883545 8.909882 150.664795 8.170299 C 149.446045 7.430716 147.638753 7.060924 145.24292 7.060924 L 143.987711 7.060924 Z M 191.732507 -0.11616 L 190.53459 7.540091 L 175.99813 7.540091 L 174.43563 17.477591 L 188.446048 17.477591 L 187.248131 25.133842 L 173.237714 25.133842 L 171.263755 37.342176 L 185.81584 37.342176 L 184.617923 44.998427 L 161.274171 44.998427 L 168.399172 -0.11616 Z M 191.732507 -0.11616 " stroke="#142952" stroke-width="1.309018" stroke-opacity="1" stroke-miterlimit="4"/><g fill="#142952" fill-opacity="1"><g transform="translate(336.88759, 47.984268)"><g><path d="M 14.359375 -33.828125 L 9.015625 0 L 2.421875 0 L 7.765625 -33.828125 Z M 14.359375 -33.828125 "/></g></g></g><g fill="#142952" fill-opacity="1"><g transform="translate(347.294823, 47.984268)"><g><path d="M 12.6875 -34.71875 L 26.734375 -11.078125 L 26.828125 -11.078125 L 30.421875 -33.828125 L 37.015625 -33.828125 L 31.578125 0.671875 L 26.828125 0.671875 L 12.734375 -22.96875 L 12.65625 -22.96875 L 9.015625 0 L 2.421875 0 L 7.9375 -34.71875 Z M 12.6875 -34.71875 "/></g></g></g><g fill="#142952" fill-opacity="1"><g transform="translate(380.356058, 47.984268)"><g><path d="M 22.515625 -26.375 C 21.984375 -27.269531 21.34375 -27.957031 20.59375 -28.4375 C 19.84375 -28.914062 18.945312 -29.15625 17.90625 -29.15625 C 16.707031 -29.15625 15.601562 -28.710938 14.59375 -27.828125 C 13.59375 -26.953125 13.09375 -25.929688 13.09375 -24.765625 C 13.09375 -24.015625 13.398438 -23.363281 14.015625 -22.8125 C 14.628906 -22.257812 15.628906 -21.675781 17.015625 -21.0625 C 18.410156 -20.445312 19.347656 -19.988281 19.828125 -19.6875 C 20.722656 -19.269531 21.535156 -18.703125 22.265625 -17.984375 C 23.003906 -17.265625 23.550781 -16.445312 23.90625 -15.53125 C 24.269531 -14.625 24.453125 -13.675781 24.453125 -12.6875 C 24.453125 -10.863281 24.09375 -9.070312 23.375 -7.3125 C 22.65625 -5.550781 21.675781 -4.046875 20.4375 -2.796875 C 19.195312 -1.554688 17.820312 -0.628906 16.3125 -0.015625 C 14.800781 0.585938 13.128906 0.890625 11.296875 0.890625 C 8.972656 0.890625 7.046875 0.285156 5.515625 -0.921875 C 3.992188 -2.128906 2.796875 -3.722656 1.921875 -5.703125 L 6.859375 -9.875 C 7.191406 -8.34375 7.84375 -7.132812 8.8125 -6.25 C 9.78125 -5.375 10.894531 -4.9375 12.15625 -4.9375 C 13.5625 -4.9375 14.78125 -5.507812 15.8125 -6.65625 C 16.84375 -7.8125 17.359375 -9.125 17.359375 -10.59375 C 17.359375 -11.570312 17.050781 -12.390625 16.4375 -13.046875 C 15.820312 -13.710938 14.828125 -14.3125 13.453125 -14.84375 C 10.878906 -15.863281 9.007812 -16.976562 7.84375 -18.1875 C 6.675781 -19.394531 6.09375 -20.925781 6.09375 -22.78125 C 6.09375 -24.820312 6.601562 -26.753906 7.625 -28.578125 C 8.644531 -30.398438 10.054688 -31.878906 11.859375 -33.015625 C 13.671875 -34.148438 15.625 -34.71875 17.71875 -34.71875 C 19.300781 -34.71875 20.914062 -34.363281 22.5625 -33.65625 C 24.207031 -32.957031 25.460938 -32.054688 26.328125 -30.953125 Z M 22.515625 -26.375 "/></g></g></g><g fill="#142952" fill-opacity="1"><g transform="translate(402.96505, 47.984268)"><g><path d="M 16.953125 -33.828125 C 20.335938 -33.828125 22.859375 -33.128906 24.515625 -31.734375 C 26.171875 -30.347656 27 -28.410156 27 -25.921875 C 27 -23.566406 26.539062 -21.347656 25.625 -19.265625 C 24.71875 -17.191406 23.328125 -15.570312 21.453125 -14.40625 C 19.585938 -13.238281 17.25 -12.65625 14.4375 -12.65625 L 11.03125 -12.65625 L 9.015625 0 L 2.421875 0 L 7.765625 -33.828125 Z M 11.890625 -18.125 L 13.59375 -18.125 C 15.320312 -18.125 16.648438 -18.382812 17.578125 -18.90625 C 18.503906 -19.425781 19.175781 -20.238281 19.59375 -21.34375 C 20.019531 -22.457031 20.234375 -23.535156 20.234375 -24.578125 C 20.234375 -25.535156 20.0625 -26.273438 19.71875 -26.796875 C 19.375 -27.328125 18.789062 -27.71875 17.96875 -27.96875 C 17.144531 -28.21875 16.117188 -28.34375 14.890625 -28.34375 L 13.5 -28.34375 Z M 11.890625 -18.125 "/></g></g></g><g fill="#142952" fill-opacity="1"><g transform="translate(425.663764, 47.984268)"><g><path d="M 14.359375 -33.828125 L 9.015625 0 L 2.421875 0 L 7.765625 -33.828125 Z M 14.359375 -33.828125 "/></g></g></g><g fill="#142952" fill-opacity="1"><g transform="translate(436.070997, 47.984268)"><g><path d="M 16.828125 -33.828125 C 19.929688 -33.828125 22.335938 -33.148438 24.046875 -31.796875 C 25.753906 -30.453125 26.609375 -28.507812 26.609375 -25.96875 C 26.609375 -23.007812 25.773438 -20.40625 24.109375 -18.15625 C 22.453125 -15.914062 20.410156 -14.617188 17.984375 -14.265625 L 25.296875 0 L 17.3125 0 L 11.265625 -13.640625 L 11.171875 -13.640625 L 9.015625 0 L 2.421875 0 L 7.765625 -33.828125 Z M 11.890625 -18.25 L 12.96875 -18.25 C 15.382812 -18.25 17.140625 -18.835938 18.234375 -20.015625 C 19.328125 -21.203125 19.875 -22.769531 19.875 -24.71875 C 19.875 -26.09375 19.414062 -27.054688 18.5 -27.609375 C 17.59375 -28.160156 16.238281 -28.4375 14.4375 -28.4375 L 13.5 -28.4375 Z M 11.890625 -18.25 "/></g></g></g><g fill="#142952" fill-opacity="1"><g transform="translate(460.115489, 47.984268)"><g><path d="M 25.25 -33.828125 L 24.359375 -28.078125 L 13.453125 -28.078125 L 12.296875 -20.640625 L 22.78125 -20.640625 L 21.890625 -14.890625 L 11.390625 -14.890625 L 9.90625 -5.734375 L 20.8125 -5.734375 L 19.921875 0 L 2.421875 0 L 7.765625 -33.828125 Z M 25.25 -33.828125 "/></g></g></g></svg>