<svg xmlns="http://www.w3.org/2000/svg" xmlns:xlink="http://www.w3.org/1999/xlink" width="500" zoomAndPan="magnify" viewBox="0 0 375 149.999998" height="200" preserveAspectRatio="xMidYMid meet" version="1.0"><defs><g/></defs><path stroke-linecap="butt" transform="matrix(0.75, 0, 0, 0.75, 24.980085, 72.377268)" fill="none" stroke-linejoin="miter" d="M 37.250514 -0.0759409 C 41.125515 -0.0759409 44.14114 0.700101 46.29739 2.257393 C 48.469265 3.804268 49.552598 6.153226 49.552598 9.293851 C 49.552598 15.627185 47.193223 19.939685 42.48489 22.231352 L 42.48489 22.356352 C 47.880723 23.085519 50.57864 26.168852 50.57864 31.606353 C 50.57864 36.752186 48.823432 40.778228 45.318223 43.674062 C 41.807806 46.559478 37.078639 48.002187 31.135931 48.002187 L 11.547388 48.002187 L 19.146347 -0.0759409 Z M 30.167181 9.481351 L 28.703639 18.793852 L 30.354681 18.793852 C 35.203639 18.793852 37.625514 16.898018 37.625514 13.11156 C 37.625514 11.887601 37.156764 10.976143 36.224473 10.387601 C 35.292181 9.783435 33.698431 9.481351 31.443222 9.481351 Z M 25.57343 38.439686 L 28.375514 38.439686 C 31.906764 38.439686 34.391139 37.913645 35.833848 36.851145 C 37.286973 35.783436 38.016139 34.288644 38.016139 32.366769 C 38.016139 30.840728 37.458848 29.752186 36.349473 29.101144 C 35.250514 28.434477 33.359889 28.101144 30.682806 28.101144 L 27.177597 28.101144 Z M 73.39635 -0.0759409 L 67.464058 37.413645 L 82.45885 37.413645 L 80.807809 48.002187 L 53.313015 48.002187 L 60.911974 -0.0759409 Z M 138.510937 19.304269 C 138.510937 23.934477 137.172395 28.741769 134.495312 33.720936 C 131.818228 38.694895 128.03177 42.580312 123.146353 45.382395 C 118.255727 48.184479 113.005727 49.58552 107.391143 49.58552 C 100.630726 49.58552 95.146351 47.601145 90.932809 43.627187 C 86.729684 39.64802 84.625517 34.413644 84.625517 27.913644 C 84.625517 22.559477 86.036976 17.621977 88.859892 13.095935 C 91.693226 8.559476 95.547393 4.960518 100.411976 2.304268 C 105.281768 -0.351983 110.30781 -1.680108 115.484894 -1.680108 C 119.615102 -1.680108 123.474478 -0.789483 127.068228 0.996976 C 130.65677 2.783434 133.458853 5.262601 135.474478 8.439685 C 137.50052 11.606351 138.510937 15.226143 138.510937 19.304269 Z M 109.302602 37.476145 C 112.198435 37.476145 114.865102 36.67927 117.307811 35.095936 C 119.755727 33.496978 121.703644 31.434478 123.146353 28.913644 C 124.589061 26.382394 125.307811 23.877185 125.307811 21.408435 C 125.307811 18.345935 124.151561 15.752185 121.839061 13.621977 C 119.521352 11.496976 116.745311 10.434476 113.505727 10.434476 C 111.005727 10.434476 108.521352 11.116768 106.047393 12.48656 C 103.58906 13.845935 101.604685 15.67406 100.08906 17.965727 C 98.583851 20.262602 97.828643 22.809477 97.828643 25.611561 C 97.828643 29.059477 98.896351 31.898019 101.036976 34.127186 C 103.18281 36.361561 105.943227 37.476145 109.302602 37.476145 Z M 177.089064 16.752185 C 175.849481 11.648018 172.729689 9.095935 167.714064 9.095935 C 165.078647 9.095935 162.604688 9.95531 160.28698 11.679268 C 157.97448 13.403227 156.13073 15.679268 154.760938 18.512602 C 153.401563 21.335519 152.719271 24.215727 152.719271 27.153227 C 152.719271 30.804269 153.677604 33.746978 155.583855 35.981353 C 157.50573 38.21052 160.078647 39.330311 163.307813 39.330311 C 166.245314 39.330311 168.708855 38.58552 170.703647 37.101145 C 172.708856 35.606353 174.026564 33.564686 174.656772 30.965728 L 164.458855 30.965728 L 166.047397 21.158435 L 190.865107 21.158435 C 189.755732 27.877186 187.891148 33.179269 185.276565 37.069895 C 182.661981 40.950103 179.344273 44.007395 175.328647 46.24177 C 171.313022 48.470937 166.734897 49.58552 161.594272 49.58552 C 154.964063 49.58552 149.641146 47.720937 145.620312 43.981353 C 141.604687 40.246978 139.599479 35.246978 139.599479 28.991769 C 139.599479 23.512602 140.891145 18.413644 143.474479 13.700102 C 146.068229 8.981351 149.703646 5.236559 154.370313 2.476143 C 159.052605 -0.294691 164.307813 -1.680108 170.141147 -1.680108 C 180.302606 -1.680108 186.828648 2.804268 189.714065 11.773018 Z M 215.021358 -1.351983 C 220.167192 -1.351983 224.995317 -0.0342742 229.500526 2.601143 L 222.990109 12.283435 C 220.740108 10.158435 218.151567 9.095935 215.224483 9.095935 C 213.688025 9.095935 212.292191 9.528226 211.031774 10.403226 C 209.786983 11.273018 209.167191 12.345935 209.167191 13.621977 C 209.167191 14.559477 209.609899 15.377185 210.505733 16.085518 C 211.396358 16.788643 213.031775 17.481352 215.406775 18.153227 C 218.635942 19.132394 220.974483 20.075102 222.417192 20.98656 C 223.870317 21.903227 224.995317 23.028227 225.792192 24.366769 C 226.604692 25.705311 227.005734 27.377186 227.005734 29.377186 C 227.005734 32.262603 226.26615 35.325103 224.781775 38.564686 C 223.2974 41.793853 220.865108 44.36677 217.479692 46.288645 C 214.094275 48.194895 210.089066 49.194895 205.458857 49.278229 C 199.51094 49.278229 194.156773 47.450104 189.391148 43.793853 L 196.339065 33.705311 C 199.656774 37.028228 203.083857 38.689686 206.615108 38.689686 C 208.563024 38.689686 210.208858 38.17927 211.5474 37.163645 C 212.885941 36.137603 213.557816 34.840728 213.557816 33.273019 C 213.557816 31.226144 211.51615 29.653227 207.438024 28.554269 C 202.505732 27.194894 199.318232 25.741769 197.865107 24.194894 C 196.422399 22.637602 195.69844 20.564685 195.69844 17.965727 C 195.69844 12.528226 197.557815 7.950101 201.271357 4.236559 C 205.000524 0.507392 209.583858 -1.351983 215.021358 -1.351983 Z M 255.776569 -0.0759409 C 260.406777 -0.0759409 264.057819 0.965726 266.734903 3.054268 C 269.411986 5.127184 270.750528 8.184476 270.750528 12.220935 C 270.750528 15.408435 270.052611 18.684477 268.65157 22.04906 C 267.250528 25.408436 264.974486 27.939686 261.833861 29.642811 C 258.688027 31.335519 255.156777 32.142811 251.245318 32.059478 L 243.786985 32.059478 L 241.234901 48.002187 L 228.729692 48.002187 L 236.328651 -0.0759409 Z M 247.229693 9.996976 L 245.375526 21.98656 L 248.443235 21.98656 C 251.969277 21.98656 254.359902 21.345935 255.604694 20.069894 C 256.859902 18.793852 257.490111 16.877185 257.490111 14.325102 C 257.490111 12.757393 256.969277 11.648018 255.932819 10.991768 C 254.891152 10.33031 253.229694 9.996976 250.932818 9.996976 Z M 289.563029 -0.0759409 L 286.635946 18.481352 L 304.677613 18.481352 L 307.620322 -0.0759409 L 320.109906 -0.0759409 L 312.526572 48.002187 L 300.026571 48.002187 L 303.151572 28.288644 L 285.109904 28.288644 L 281.979695 48.002187 L 269.479695 48.002187 L 277.073445 -0.0759409 Z M 354.229699 -0.0759409 L 352.563033 10.512601 L 337.714074 10.512601 L 336.438032 18.543852 L 350.526574 18.543852 L 348.875533 29.132394 L 334.771365 29.132394 L 333.432823 37.413645 L 348.297407 37.413645 L 346.630741 48.002187 L 319.276572 48.002187 L 326.875531 -0.0759409 Z M 379.536993 -0.0759409 C 383.875535 -0.0759409 387.354701 0.944892 389.969285 2.991768 C 392.583868 5.023018 393.89116 7.950101 393.89116 11.773018 C 393.89116 15.86156 392.677618 19.465727 390.250535 22.590727 C 387.833868 25.715727 384.729701 27.616769 380.938034 28.288644 L 392.927618 48.002187 L 377.375534 48.002187 L 368.516159 29.502186 L 368.375534 29.502186 L 365.44845 48.002187 L 352.948449 48.002187 L 360.5422 -0.0759409 Z M 369.651575 21.470935 L 371.380742 21.470935 C 374.318242 21.470935 376.589076 20.851144 378.198451 19.616769 C 379.818243 18.382394 380.630743 16.575102 380.630743 14.200102 C 380.630743 11.054268 378.031784 9.481351 372.844284 9.481351 L 371.568242 9.481351 Z M 429.854704 -0.0759409 L 428.188037 10.512601 L 413.339078 10.512601 L 412.063036 18.543852 L 426.151579 18.543852 L 424.500537 29.132394 L 410.396369 29.132394 L 409.057828 37.413645 L 423.922412 37.413645 L 422.260953 48.002187 L 394.906785 48.002187 L 402.500536 -0.0759409 Z M 429.854704 -0.0759409 " stroke="#142952" stroke-width="1.395074" stroke-opacity="1" stroke-miterlimit="4"/><g fill="#142952" fill-opacity="1"><g transform="translate(85.981242, 56.523328)"><g><path d="M 9.1875 -22.484375 L 10.796875 -7.96875 L 10.859375 -7.96875 L 17.859375 -22.484375 L 22.515625 -22.484375 L 24.640625 -7.96875 L 24.703125 -7.96875 L 31.234375 -22.484375 L 37.3125 -22.484375 L 26.578125 0 L 20.609375 0 L 18.734375 -13.03125 L 18.671875 -13.03125 L 12.203125 0 L 6.265625 0 L 3.109375 -22.484375 Z M 9.1875 -22.484375 "/></g></g></g><g fill="#142952" fill-opacity="1"><g transform="translate(118.638573, 56.523328)"><g><path d="M 18.25 -22.484375 L 17.484375 -17.53125 L 10.53125 -17.53125 L 9.9375 -13.78125 L 16.53125 -13.78125 L 15.75 -8.828125 L 9.15625 -8.828125 L 8.53125 -4.953125 L 15.484375 -4.953125 L 14.703125 0 L 1.90625 0 L 5.453125 -22.484375 Z M 18.25 -22.484375 "/></g></g></g><g fill="#142952" fill-opacity="1"><g transform="translate(134.385588, 56.523328)"><g><path d="M 11.3125 -22.484375 L 8.53125 -4.953125 L 15.546875 -4.953125 L 14.765625 0 L 1.90625 0 L 5.453125 -22.484375 Z M 11.3125 -22.484375 "/></g></g></g><g fill="#142952" fill-opacity="1"><g transform="translate(148.492272, 56.523328)"><g><path d="M 20.34375 -14.9375 C 19.882812 -15.738281 19.234375 -16.351562 18.390625 -16.78125 C 17.546875 -17.207031 16.613281 -17.421875 15.59375 -17.421875 C 13.707031 -17.421875 12.054688 -16.691406 10.640625 -15.234375 C 9.234375 -13.785156 8.53125 -12.066406 8.53125 -10.078125 C 8.53125 -8.585938 9.003906 -7.378906 9.953125 -6.453125 C 10.910156 -5.535156 12.175781 -5.078125 13.75 -5.078125 C 14.707031 -5.078125 15.664062 -5.289062 16.625 -5.71875 C 17.59375 -6.144531 18.441406 -6.722656 19.171875 -7.453125 L 18.046875 -0.453125 C 17.628906 -0.304688 16.894531 -0.0976562 15.84375 0.171875 C 14.800781 0.453125 13.765625 0.59375 12.734375 0.59375 C 10.921875 0.59375 9.226562 0.203125 7.65625 -0.578125 C 6.09375 -1.367188 4.828125 -2.472656 3.859375 -3.890625 C 2.898438 -5.316406 2.410156 -6.972656 2.390625 -8.859375 C 2.390625 -11.398438 3.015625 -13.75 4.265625 -15.90625 C 5.515625 -18.070312 7.25 -19.8125 9.46875 -21.125 C 11.6875 -22.4375 13.96875 -23.09375 16.3125 -23.09375 C 17.988281 -23.09375 19.707031 -22.710938 21.46875 -21.953125 Z M 20.34375 -14.9375 "/></g></g></g><g fill="#142952" fill-opacity="1"><g transform="translate(167.519951, 56.523328)"><g><path d="M 27.65625 -13.421875 C 27.65625 -11.253906 27.023438 -9.003906 25.765625 -6.671875 C 24.515625 -4.347656 22.742188 -2.53125 20.453125 -1.21875 C 18.171875 0.09375 15.71875 0.75 13.09375 0.75 C 9.9375 0.75 7.375 -0.175781 5.40625 -2.03125 C 3.4375 -3.894531 2.453125 -6.347656 2.453125 -9.390625 C 2.453125 -11.898438 3.109375 -14.210938 4.421875 -16.328125 C 5.742188 -18.441406 7.546875 -20.117188 9.828125 -21.359375 C 12.109375 -22.609375 14.457031 -23.234375 16.875 -23.234375 C 18.8125 -23.234375 20.617188 -22.816406 22.296875 -21.984375 C 23.972656 -21.148438 25.285156 -19.988281 26.234375 -18.5 C 27.179688 -17.019531 27.65625 -15.328125 27.65625 -13.421875 Z M 13.984375 -4.921875 C 15.335938 -4.921875 16.585938 -5.289062 17.734375 -6.03125 C 18.878906 -6.78125 19.785156 -7.742188 20.453125 -8.921875 C 21.128906 -10.109375 21.46875 -11.28125 21.46875 -12.4375 C 21.46875 -13.863281 20.925781 -15.070312 19.84375 -16.0625 C 18.757812 -17.0625 17.460938 -17.5625 15.953125 -17.5625 C 14.785156 -17.5625 13.625 -17.242188 12.46875 -16.609375 C 11.3125 -15.972656 10.378906 -15.117188 9.671875 -14.046875 C 8.972656 -12.972656 8.625 -11.78125 8.625 -10.46875 C 8.625 -8.851562 9.125 -7.523438 10.125 -6.484375 C 11.132812 -5.441406 12.421875 -4.921875 13.984375 -4.921875 Z M 13.984375 -4.921875 "/></g></g></g><g fill="#142952" fill-opacity="1"><g transform="translate(193.317719, 56.523328)"><g><path d="M 13.6875 -22.484375 L 16.375 -10.46875 L 23.09375 -22.484375 L 28.90625 -22.484375 L 28.75 0 L 22.90625 0 L 23.328125 -12.953125 L 23.265625 -12.953125 L 15.8125 0 L 13.484375 0 L 10.375 -12.953125 L 10.328125 -12.953125 L 6.390625 0 L 0.5625 0 L 7.9375 -22.484375 Z M 13.6875 -22.484375 "/></g></g></g><g fill="#142952" fill-opacity="1"><g transform="translate(221.978609, 56.523328)"><g><path d="M 18.25 -22.484375 L 17.484375 -17.53125 L 10.53125 -17.53125 L 9.9375 -13.78125 L 16.53125 -13.78125 L 15.75 -8.828125 L 9.15625 -8.828125 L 8.53125 -4.953125 L 15.484375 -4.953125 L 14.703125 0 L 1.90625 0 L 5.453125 -22.484375 Z M 18.25 -22.484375 "/></g></g></g><g fill="#142952" fill-opacity="1"><g transform="translate(237.725621, 56.523328)"><g/></g></g><g fill="#142952" fill-opacity="1"><g transform="translate(247.299027, 56.523328)"><g><path d="M 19.234375 -22.484375 L 18.46875 -17.53125 L 13.625 -17.53125 L 10.859375 0 L 5.015625 0 L 7.78125 -17.53125 L 2.953125 -17.53125 L 3.734375 -22.484375 Z M 19.234375 -22.484375 "/></g></g></g><g fill="#142952" fill-opacity="1"><g transform="translate(262.539031, 56.523328)"><g><path d="M 27.65625 -13.421875 C 27.65625 -11.253906 27.023438 -9.003906 25.765625 -6.671875 C 24.515625 -4.347656 22.742188 -2.53125 20.453125 -1.21875 C 18.171875 0.09375 15.71875 0.75 13.09375 0.75 C 9.9375 0.75 7.375 -0.175781 5.40625 -2.03125 C 3.4375 -3.894531 2.453125 -6.347656 2.453125 -9.390625 C 2.453125 -11.898438 3.109375 -14.210938 4.421875 -16.328125 C 5.742188 -18.441406 7.546875 -20.117188 9.828125 -21.359375 C 12.109375 -22.609375 14.457031 -23.234375 16.875 -23.234375 C 18.8125 -23.234375 20.617188 -22.816406 22.296875 -21.984375 C 23.972656 -21.148438 25.285156 -19.988281 26.234375 -18.5 C 27.179688 -17.019531 27.65625 -15.328125 27.65625 -13.421875 Z M 13.984375 -4.921875 C 15.335938 -4.921875 16.585938 -5.289062 17.734375 -6.03125 C 18.878906 -6.78125 19.785156 -7.742188 20.453125 -8.921875 C 21.128906 -10.109375 21.46875 -11.28125 21.46875 -12.4375 C 21.46875 -13.863281 20.925781 -15.070312 19.84375 -16.0625 C 18.757812 -17.0625 17.460938 -17.5625 15.953125 -17.5625 C 14.785156 -17.5625 13.625 -17.242188 12.46875 -16.609375 C 11.3125 -15.972656 10.378906 -15.117188 9.671875 -14.046875 C 8.972656 -12.972656 8.625 -11.78125 8.625 -10.46875 C 8.625 -8.851562 9.125 -7.523438 10.125 -6.484375 C 11.132812 -5.441406 12.421875 -4.921875 13.984375 -4.921875 Z M 13.984375 -4.921875 "/></g></g></g></svg>